<?xml version="1.0" encoding="UTF-8" standalone="no"?>
<svg xmlns="http://www.w3.org/2000/svg" height="64" overflow="visible" version="1.1" viewBox="0 0 51.2 51.2" width="64" id="svg3004" style="fill-rule:evenodd;stroke-width:0.50099999;stroke-linejoin:bevel;overflow:visible">
  <metadata id="metadata3259">
    
  </metadata>
  
  <defs id="defs3006">
    <marker id="DefaultArrow2" markerHeight="1" markerUnits="strokeWidth" markerWidth="1" orient="auto" overflow="visible" viewBox="0 0 1 1" style="overflow:visible">
      <g transform="scale(0.00925926,0.00925926)" id="g3009">
        <path d="M -9,54 -9,-54 117,0 z" id="path3011" />
      </g>
    </marker>
    <marker id="DefaultArrow3" markerHeight="1" markerUnits="strokeWidth" markerWidth="1" orient="auto" overflow="visible" viewBox="0 0 1 1" style="overflow:visible">
      <g transform="scale(0.00925926,0.00925926)" id="g3014">
        <path d="M -27,54 -9,0 -27,-54 135,0 z" id="path3016" />
      </g>
    </marker>
    <marker id="DefaultArrow4" markerHeight="1" markerUnits="strokeWidth" markerWidth="1" orient="auto" overflow="visible" viewBox="0 0 1 1" style="overflow:visible">
      <g transform="scale(0.00925926,0.00925926)" id="g3019">
        <path d="m -9,0 0,-45 c 0,-6.708 11.808,-11.58 18,-9 l 108,45 c 3.916,1.631 9,4.758 9,9 0,4.242 -5.084,7.369 -9,9 L 9,54 C 2.808,56.58 -9,51.708 -9,45 z" id="path3021" />
      </g>
    </marker>
    <marker id="DefaultArrow5" markerHeight="1" markerUnits="strokeWidth" markerWidth="1" orient="auto" overflow="visible" viewBox="0 0 1 1" style="overflow:visible">
      <g transform="scale(0.00925926,0.00925926)" id="g3024">
        <path d="M -54,0 C -54,29.807 -29.807,54 0,54 29.807,54 54,29.807 54,0 54,-29.807 29.807,-54 0,-54 -29.807,-54 -54,-29.807 -54,0 z" id="path3026" />
      </g>
    </marker>
    <marker id="DefaultArrow6" markerHeight="1" markerUnits="strokeWidth" markerWidth="1" orient="auto" overflow="visible" viewBox="0 0 1 1" style="overflow:visible">
      <g transform="scale(0.00925926,0.00925926)" id="g3029">
        <path d="M -63,0 0,63 63,0 0,-63 z" id="path3031" />
      </g>
    </marker>
    <marker id="DefaultArrow7" markerHeight="1" markerUnits="strokeWidth" markerWidth="1" orient="auto" overflow="visible" viewBox="0 0 1 1" style="overflow:visible">
      <g transform="scale(0.00925926,0.00925926)" id="g3034">
        <path d="m 18,-54 90,0 L 63,0 108,54 18,54 -36,0 z" id="path3036" />
      </g>
    </marker>
    <marker id="DefaultArrow8" markerHeight="1" markerUnits="strokeWidth" markerWidth="1" orient="auto" overflow="visible" viewBox="0 0 1 1" style="overflow:visible">
      <g transform="scale(0.00925926,0.00925926)" id="g3039">
        <path d="m -36,0 54,-54 36,0 -36,36 9,0 36,-36 36,0 -36,36 9,0 36,-36 36,0 -54,54 54,54 -36,0 -36,-36 -9,0 36,36 -36,0 -36,-36 -9,0 36,36 -36,0 z" id="path3041" />
      </g>
    </marker>
    <marker id="DefaultArrow9" markerHeight="1" markerUnits="strokeWidth" markerWidth="1" orient="auto" overflow="visible" viewBox="0 0 1 1" style="overflow:visible">
      <g transform="scale(0.00925926,0.00925926)" id="g3044">
        <path d="M 0,45 -45,0 0,-45 45,0 z M 0,63 -63,0 0,-63 63,0 z" id="path3046" />
      </g>
    </marker>
    <filter id="StainedFilter" color-interpolation-filters="sRGB">
      <feBlend in="SourceGraphic" in2="BackgroundImage" mode="multiply" result="blend" id="feBlend3049" />
      <feComposite in="blend" in2="SourceAlpha" operator="in" result="comp" id="feComposite3051" />
    </filter>
    <filter id="BleachFilter" color-interpolation-filters="sRGB">
      <feBlend in="SourceGraphic" in2="BackgroundImage" mode="screen" result="blend" id="feBlend3054" />
      <feComposite in="blend" in2="SourceAlpha" operator="in" result="comp" id="feComposite3056" />
    </filter>
    <filter id="InvertTransparencyBitmapFilter" color-interpolation-filters="sRGB">
      <feComponentTransfer id="feComponentTransfer3059">
        <feFuncR amplitude="1.055" exponent=".416666666" offset="-0.055" type="gamma" id="feFuncR3061" />
        <feFuncG amplitude="1.055" exponent=".416666666" offset="-0.055" type="gamma" id="feFuncG3063" />
        <feFuncB amplitude="1.055" exponent=".416666666" offset="-0.055" type="gamma" id="feFuncB3065" />
      </feComponentTransfer>
      <feComponentTransfer id="feComponentTransfer3067">
        <feFuncR intercept="1" slope="-1" type="linear" id="feFuncR3069" />
        <feFuncG intercept="1" slope="-1" type="linear" id="feFuncG3071" />
        <feFuncB intercept="1" slope="-1" type="linear" id="feFuncB3073" />
        <feFuncA intercept="0" slope="1" type="linear" id="feFuncA3075" />
      </feComponentTransfer>
      <feComponentTransfer id="feComponentTransfer3077">
        <feFuncR amplitude="1" exponent="2.4" offset="0" type="gamma" id="feFuncR3079" />
        <feFuncG amplitude="1" exponent="2.4" offset="0" type="gamma" id="feFuncG3081" />
        <feFuncB amplitude="1" exponent="2.4" offset="0" type="gamma" id="feFuncB3083" />
      </feComponentTransfer>
    </filter>
    <radialGradient cx="0" cy="0" gradientTransform="matrix(-0.29445734,-0.95566462,0.89558295,-0.2759451,39.921,88.413)" gradientUnits="userSpaceOnUse" id="RadialGradient" r="30.985001">
      <stop offset="0" stop-color="#a75214" id="stop3086" />
      <stop offset="0.1" stop-color="#a75214" id="stop3088" />
      <stop offset="0.2" stop-color="#a65215" id="stop3090" />
      <stop offset="0.3" stop-color="#a55216" id="stop3092" />
      <stop offset="0.4" stop-color="#a45217" id="stop3094" />
      <stop offset="0.5" stop-color="#a35218" id="stop3096" />
      <stop offset="0.6" stop-color="#a1531a" id="stop3098" />
      <stop offset="0.7" stop-color="#9e531d" id="stop3100" />
      <stop offset="0.8" stop-color="#985422" id="stop3102" />
      <stop offset="0.9" stop-color="#8b5530" id="stop3104" />
      <stop offset="1" stop-color="#4c5d6e" id="stop3106" />
    </radialGradient>
  </defs>
  <g font-size="16" id="Document" transform="matrix(0.52630023,0,0,-0.52630023,0.13476459,0.29969537)" style="font-size:16px;fill:none;stroke:#000000;font-family:Times New Roman">
    <g id="Spread" transform="translate(0,-96)">
      <g id="Layer 1">
        <path d="m 48.186,17.695 c 26.162,0 47.396,-2.505 47.396,-5.591 0,-3.086 -21.234,-5.591 -47.396,-5.591 -26.162,0 -47.396,2.505 -47.396,5.591 0,3.086 21.234,5.591 47.396,5.591 z" stroke-miterlimit="79.8403193612775" id="path3111" style="fill:#000000;fill-opacity:0.29803898;stroke:none;stroke-width:0.75;marker-start:none;marker-end:none" />
        <g id="Group" style="stroke-linejoin:round">
          <path d="m 38.438,7.286 c -0.425,0.19 -0.791,0.457 -1.09,0.778 L 36.981,8.653 31.907,8.993 28.882,9.584 28.808,9.488 C 28.16,8.916 27.295,8.591 26.366,8.649 24.97,8.736 23.825,9.66 23.386,10.92 l -0.948,0.302 -0.805,-0.468 c -1.764,-0.599 -3.682,0.345 -4.282,2.11 l -0.153,0.495 -3.755,2.396 C 11.626,17.104 9.92,18.668 8.387,20.4 l -2.783,3.917 -1.049,0.149 c -1.239,0.442 -2.157,1.591 -2.236,2.988 l -0.005,3.648 -0.549,1.346 c -0.591,2.223 -0.884,4.524 -0.816,6.857 l 0.245,1.623 -0.106,1.399 c -0.061,3.854 0.534,8.015 1.731,10.611 2.121,4.603 5.632,9.288 6.183,13.081 0.401,2.749 -2.059,8.908 -1.076,10.902 0.07,0.141 0.161,0.271 0.271,0.384 1.59,1.63 3.636,1.202 5.062,0.527 l 1.115,-0.653 0.935,1.722 c 4.256,6.298 11.462,10.442 19.63,10.442 l 1.04,-0.09 3.148,-0.281 c 9.517,-1.701 17.071,-9.099 19.004,-18.535 l 0.295,-2.917 2.063,1.341 c 1.715,0.679 3.544,0.598 5.115,-0.081 l 2.034,-1.393 0.131,0.061 0.497,0.122 0.377,0.48 c 1.93,2.798 4.321,6.753 6.781,7.479 l 1.212,0.051 0.078,-0.02 0.122,0.003 -0.017,-0.061 1.313,-0.726 c 0.8,-0.81 1.462,-2.138 1.914,-3.683 l 0.514,-3.903 2.703,-1.421 c 1.347,-0.884 2.594,-1.985 3.706,-3.305 l 1.32,-2.102 0.515,0.292 c 2.105,1.034 4.243,1.591 6.194,0.421 0.177,-0.106 0.329,-0.247 0.449,-0.414 1.336,-1.87 -0.106,-7 -1.372,-10.563 -0.89,-2.504 -2.325,-6.062 -4.077,-7.853 l -0.372,-0.22 -1.291,-3.258 c -1.027,-1.941 -2.264,-3.845 -3.654,-5.691 l -1.11,-1.299 0.07,-0.164 c 0.091,-0.429 0.099,-0.883 0.011,-1.34 -0.264,-1.372 -1.327,-2.39 -2.614,-2.663 L 79.977,27.602 74.967,22.85 C 73.195,21.315 71.384,19.879 69.593,18.563 L 67.05,16.881 66.687,15.754 C 66.27,14.997 65.565,14.4 64.67,14.141 c -0.448,-0.13 -0.9,-0.162 -1.336,-0.11 l -0.4,0.128 -0.271,-0.179 c -1.321,-0.776 -2.695,-1.464 -4.111,-2.069 l -3.029,-1.12 C 55.396,10.361 55.185,9.959 54.888,9.601 53.699,8.167 51.571,7.966 50.136,9.157 L 49.952,9.324 49.634,9.248 42.602,8.573 42.898,8.986 C 42.137,7.287 40.14,6.524 38.438,7.286 z" id="path3114" style="fill:url(#RadialGradient);stroke:none;marker-start:none;marker-end:none" />
          <g id="Group_1" style="stroke-linecap:round">
            <path d="m 2.854,38.862 c -0.645,4.408 -0.108,10.334 1.328,13.449 1.885,4.092 5.716,9.44 6.305,13.492 0.472,3.239 -1.87,9.127 -1.215,10.455 1.207,1.238 3.082,0.531 4.295,-0.335 C 21.618,70.174 14.341,60.44 11.074,54.511 10.83,54.069 10.827,53.641 10.634,53.338 10.39,52.954 10.35,52.569 10.194,52.165 10.046,51.778 10.035,50.157 10.048,49.671 10.147,45.89 12.492,39.473 10.781,37.06 6.108,30.471 3.63,33.571 2.854,38.862 z" stroke-miterlimit="79.8403193612775" id="path3117" style="fill:#85919e;stroke:#4c5d6e;stroke-width:1.5;stroke-miterlimit:79.84031677;marker-start:none;marker-end:none" />
            <path d="m 67.927,64.727 c 2.244,2.185 6.184,10.014 8.521,9.388 2.634,-0.339 4.502,-12.734 -0.079,-13.2 -3.977,-0.404 -5.637,1.518 -8.465,2.492 l 0.023,1.32 z" stroke-miterlimit="79.8403193612775" id="path3119" style="fill:#85919e;stroke:#4c5d6e;stroke-width:1.5;stroke-miterlimit:79.84031677;marker-start:none;marker-end:none" />
            <path d="M 21.646,13.022 C 9.963,17.103 -0.503,30.905 3.206,44.271 c 3.168,11.407 17.296,19.624 28.716,19.284 1.669,-0.051 3.714,0.092 5.349,0.282 6.111,0.706 9.514,-2.982 14.358,-3.941 6.47,-1.282 11.546,4.438 16.615,6.13 C 76.23,68.69 84.539,65.856 88.507,57.22 95.578,41.836 76.182,23.654 61.904,15.274 50.313,8.471 34.327,8.592 21.646,13.022 z" stroke-miterlimit="79.8403193612775" id="path3121" style="fill:#85919e;stroke:#4c5d6e;stroke-width:1.5;stroke-miterlimit:79.84031677;marker-start:none;marker-end:none" />
            <path d="m 37.837,51.261 c 5.198,-1.503 -7.055,-11.73 4.202,-9.537 1.191,0.232 5.321,1.588 9.543,3.522 1.007,-0.96 3.169,-1.656 4.529,-1.514 5.808,0.608 5.946,5.401 6.054,9.558 0.373,1.265 -0.03,2.52 -1.56,3.697 -2.992,2.302 -12.346,-1.04 -16.227,-1.739 -7.872,-1.418 -14.528,0.9 -22.075,1.44 -2.114,0.151 11.682,-4.311 15.534,-5.427 z" stroke-miterlimit="79.8403193612775" id="path3123" style="fill:#aab7c5;stroke:none;stroke-width:0.75;marker-start:none;marker-end:none" />
            <path d="m 34.939,87.843 c 12.239,0 22.174,-9.935 22.174,-22.174 0,-12.239 -9.935,-22.174 -22.174,-22.174 -12.239,0 -22.174,9.935 -22.174,22.174 0,12.239 9.935,22.174 22.174,22.174 z" stroke-miterlimit="79.8403193612775" id="path3125" style="fill:#a75214;stroke:none;stroke-width:1.5;marker-start:none;marker-end:none" />
            <path d="m 83.375,55.977 c 3.96,1.613 7.919,5.572 10.852,3.812 1.467,-2.053 -3.539,-16.731 -6.306,-17.157 -3.259,-0.503 -4.689,10.089 -5.133,12.171 0.302,0.219 0.216,1.022 0.587,1.174 z" stroke-miterlimit="79.8403193612775" id="path3127" style="fill:#85919e;stroke:#4c5d6e;stroke-width:1.5;stroke-miterlimit:79.84031677;marker-start:none;marker-end:none" />
            <path d="m 72.278,56.417 c 3.346,0 6.064,-2.718 6.064,-6.064 0,-3.346 -2.718,-6.064 -6.064,-6.064 -3.346,0 -6.064,2.718 -6.064,6.064 0,3.346 2.718,6.064 6.064,6.064 z" stroke-miterlimit="79.8403193612775" id="path3129" style="fill:#ffffff;stroke:#4c5d6e;stroke-width:1.5;stroke-miterlimit:79.84031677;marker-start:none;marker-end:none" />
            <path d="m 61.042,67.467 c 2.66,1.054 5.675,-0.251 6.729,-2.911 1.052,-2.661 -1.303,-4.015 -3.962,-5.069 -2.66,-1.052 -4.624,-1.407 -5.678,1.252 -1.053,2.659 0.251,5.676 2.911,6.728 z" stroke-miterlimit="79.8403193612775" id="path3131" style="fill:#ffffff;stroke:#4c5d6e;stroke-width:1.5;stroke-miterlimit:79.84031677;marker-start:none;marker-end:none" />
            <path d="m 57.877,53.783 c -0.156,0.612 -0.132,1.421 0.126,2.488 1.275,5.278 6.51,-2.04 6.453,-3.666 -0.011,-0.317 -0.271,-0.574 -0.587,-0.587 -2.741,-0.11 -5.451,-0.354 -5.992,1.765 z" stroke-miterlimit="79.8403193612775" id="path3133" style="fill:#4c5d6e;stroke:none;stroke-width:0.75;marker-start:none;marker-end:none" />
            <path d="m 12.311,46.278 c 2.927,6.205 11.322,15.59 15.84,17.594 1.63,0.723 7.119,3.468 8.186,1.608 0.348,-0.607 0.522,-1.203 0,-1.754 -1.204,-1.275 -3.078,-2.495 -4.385,-3.363 -4.456,-2.959 -5.591,-16.192 -4.275,-19.043 1.648,-3.57 -13.738,-0.216 -15.607,4.425 0.075,0.175 0.156,0.352 0.241,0.533 z" stroke-miterlimit="79.8403193612775" id="path3135" style="fill:#85919e;stroke:#4c5d6e;stroke-width:1.5;stroke-miterlimit:79.84031677;marker-start:none;marker-end:none" />
            <path d="m 39.466,41.067 c -1.506,4.451 -1.621,21.103 5.17,21.051 0.929,-2.81 0.999,-6.126 2.155,-8.918 0.966,-2.336 3.782,-7.172 4.165,-9.063 -1.986,-2.261 -10.193,-6.478 -10.341,-4.24 l -1.149,1.17 z" stroke-miterlimit="79.8403193612775" id="path3137" style="fill:#85919e;stroke:#4c5d6e;stroke-width:1.5;stroke-miterlimit:79.84031677;marker-start:none;marker-end:none" />
            <path d="M 4.57,50.752 C 2.757,45.461 2.413,38.334 4.44,36.404 c 3.172,-2.983 5.576,4.419 6.448,11.126 -1.35,1.665 -0.05,6.095 1.328,7.863 -0.624,0.072 -0.861,-0.442 -1.608,0 -0.184,0.78 -0.194,2.768 0.731,2.924 C 8.75,59.1 5.869,54.55 4.57,50.752 z" stroke-miterlimit="79.8403193612775" id="path3139" style="fill:#85919e;stroke:none;stroke-width:0.75;marker-start:none;marker-end:none" />
            <path d="m 12.216,48.376 c -0.122,-0.714 -0.424,-0.931 -0.292,-1.754 0.067,0.014 0.492,-0.296 0.585,-0.293 1.322,0.039 1.459,1.181 2.192,0.877 4.49,-1.863 7.677,-3.434 11.988,-4.824 0,-0.292 0,-0.585 0,-0.877 0.244,-0.935 1.737,-1.256 1.865,0.18 3.008,-1.965 0.515,-6.96 -3.035,-7.051 -6.619,-0.168 -11.05,5.835 -14.618,10.233 -0.568,0.7 -0.758,2.179 0.511,2.632 0.175,-0.441 0.668,0.424 0.804,0.877 z" stroke-miterlimit="79.8403193612775" id="path3141" style="fill:#85919e;stroke:none;stroke-width:0.75;marker-start:none;marker-end:none" />
            <path d="m 38.203,41.393 c 0.445,-0.82 1.019,-1.339 1.935,-0.911 0.221,0.553 0.231,1.36 0,1.827 3.054,0.589 6.406,1.335 8.333,3.582 0.406,-0.402 1.459,-0.848 2.339,-0.731 0.469,0.397 0.572,-0.428 0.55,0.472 0.424,-0.783 1.29,-1.229 1.97,-1.388 0.407,-1.402 -0.681,-3.514 -2.081,-4.786 -1.459,-1.324 -3.5,-2.999 -5.409,-3.508 -4.252,-1.133 -9.728,0.859 -7.637,5.443 z" stroke-miterlimit="79.8403193612775" id="path3143" style="fill:#85919e;stroke:none;stroke-width:0.75;marker-start:none;marker-end:none" />
            <path d="m 73.762,52.469 c 1.292,0 2.341,-1.049 2.341,-2.341 0,-1.292 -1.049,-2.341 -2.341,-2.341 -1.292,0 -2.341,1.049 -2.341,2.341 0,1.292 1.049,2.341 2.341,2.341 z" stroke-miterlimit="79.8403193612775" id="path3145" style="fill:#4c5d6e;stroke:none;stroke-width:0.75;marker-start:none;marker-end:none" />
            <path d="m 63.967,63.286 c 1.05,0 1.902,-0.852 1.902,-1.902 0,-1.05 -0.852,-1.902 -1.902,-1.902 -1.05,0 -1.902,0.852 -1.902,1.902 0,1.05 0.852,1.902 1.902,1.902 z" stroke-miterlimit="79.8403193612775" id="path3147" style="fill:#4c5d6e;stroke:none;stroke-width:0.75;marker-start:none;marker-end:none" />
            <path d="m 82.533,57.293 c -0.111,-0.723 -0.404,-0.79 -0.293,-1.608 2.099,-1.483 3.044,-1.074 4.971,-2.631 3.029,-2.448 1.891,-11.798 -2.193,-11.988 -7.393,-0.342 -5.874,13.345 -3.801,15.204 0.579,-0.032 1.018,0.309 1.316,1.023 z" stroke-miterlimit="79.8403193612775" id="path3149" style="fill:#85919e;stroke:none;stroke-width:0.75;marker-start:none;marker-end:none" />
            <path d="m 60.897,49.984 c 0,-2.637 0,-5.359 0,-8.04" stroke-miterlimit="79.8403193612775" id="path3151" style="fill:none;stroke:#4c5d6e;stroke-width:1.125;stroke-miterlimit:79.84031677" />
            <path d="m 63.566,49.872 c 0.264,-1.652 0.66,-3.317 0.951,-4.971" stroke-miterlimit="79.8403193612775" id="path3153" style="fill:none;stroke:#4c5d6e;stroke-width:1.125;stroke-miterlimit:79.84031677" />
            <path d="m 70.73,64.198 c 0.809,0.367 1.545,1.065 2.265,1.565" stroke-miterlimit="79.8403193612775" id="path3155" style="fill:none;stroke:#4c5d6e;stroke-width:1.125;stroke-miterlimit:79.84031677" />
            <path d="m 75.626,58.862 c 1.322,0.785 2.843,0.906 4.258,1.17" stroke-miterlimit="79.8403193612775" id="path3157" style="fill:none;stroke:#4c5d6e;stroke-width:1.125;stroke-miterlimit:79.84031677" />
            <path d="m 77.138,57.766 c 0.838,0.36 1.916,0.286 2.802,0.512" stroke-miterlimit="79.8403193612775" id="path3159" style="fill:none;stroke:#4c5d6e;stroke-width:1.125;stroke-miterlimit:79.84031677" />
            <path d="m 87.053,48.28 c -0.715,0.62 -1.191,1.484 -1.527,2.407 -1.232,3.384 -0.29,3.654 2.574,5.486 0.839,0.537 2.317,1.225 2.98,0.474 1.57,-1.777 -2.063,-8.365 -3.725,-8.602 -0.105,0.074 -0.206,0.153 -0.302,0.235 z" stroke-miterlimit="79.8403193612775" id="path3161" style="fill:#aab7c5;stroke:none;stroke-width:0.75;marker-start:none;marker-end:none" />
            <path d="M 20.548,13.951 C 14.671,31.238 13.47,46.929 18.72,63.081" stroke-miterlimit="79.8403193612775" id="path3163" style="fill:none;stroke:#a75214;stroke-width:3.75;stroke-miterlimit:79.84031677" />
            <path d="M 5.689,27.648 C 4.957,40.351 10.14,53.907 17.38,65.621" stroke-miterlimit="79.8403193612775" id="path3165" style="fill:none;stroke:#a75214;stroke-width:3.75;stroke-miterlimit:79.84031677" />
            <path d="M 5.77,27.179 C 4.791,39.865 9.711,53.519 16.721,65.371" stroke-miterlimit="79.8403193612775" id="path3167" style="fill:none;stroke:#f68634;stroke-width:1.5;stroke-miterlimit:79.84031677" />
            <path d="M 36.156,44.828 C 39.097,26.772 45.741,17.186 52.291,11.756" stroke-miterlimit="79.8403193612775" id="path3169" style="fill:none;stroke:#a75214;stroke-width:3.75;stroke-miterlimit:79.84031677" />
            <path d="m 52.56,11.573 c -6.225,5.25 -14.796,17.906 -16.185,33.475 -0.566,6.349 1.579,12.756 2.827,17.031" stroke-miterlimit="79.8403193612775" id="path3171" style="fill:none;stroke:#f68634;stroke-width:1.5;stroke-miterlimit:79.84031677" />
            <path d="m 26.576,12.019 c 0.969,15.577 1.401,30.872 5.998,45.893" stroke-miterlimit="79.8403193612775" id="path3173" style="fill:none;stroke:#a75214;stroke-width:3.75;stroke-miterlimit:79.84031677" />
            <path d="m 26.576,12.019 c 0.97,15.577 1.401,30.872 5.998,45.893" stroke-miterlimit="79.8403193612775" id="path3175" style="fill:none;stroke:#f68634;stroke-width:1.5;stroke-miterlimit:79.84031677" />
            <path d="m 53.114,57.181 c 1.16,-4.23 1.66,-8.633 2.752,-12.621 l 7.867,-27.176" stroke-miterlimit="79.8403193612775" id="path3177" style="fill:none;stroke:#a75214;stroke-width:3.75;stroke-miterlimit:79.84031677" />
            <path d="m 53.114,57.181 c 1.16,-4.23 1.66,-8.633 2.752,-12.621 l 7.867,-27.176" stroke-miterlimit="79.8403193612775" id="path3179" style="fill:none;stroke:#f68634;stroke-width:1.5;stroke-miterlimit:79.84031677" />
            <path d="M 20.606,13.475 C 14.535,32.39 13.518,49.481 19.531,66.957" stroke-miterlimit="79.8403193612775" id="path3181" style="fill:none;stroke:#f68634;stroke-width:1.5;stroke-miterlimit:79.84031677" />
            <path d="m 39.819,10.367 c 7.208,16.094 8.274,31.153 8.617,46.23" stroke-miterlimit="79.8403193612775" id="path3183" style="fill:none;stroke:#a75214;stroke-width:3.75;stroke-miterlimit:79.84031677" />
            <path d="M 48.471,55.101 C 54.415,46.597 70.045,32.904 80.34,30.914" stroke-miterlimit="79.8403193612775" id="path3185" style="fill:none;stroke:#a75214;stroke-width:3.75;stroke-miterlimit:79.84031677" />
            <path d="M 39.819,10.367 C 46.901,26.409 48.02,40.423 48.363,55.5" stroke-miterlimit="79.8403193612775" id="path3187" style="fill:none;stroke:#f68634;stroke-width:1.5;stroke-miterlimit:79.84031677" />
            <path d="M 48.471,55.101 C 54.415,46.597 70.045,32.904 80.34,30.914" stroke-miterlimit="79.8403193612775" id="path3189" style="fill:none;stroke:#f68634;stroke-width:1.50028435;stroke-miterlimit:79.84031677;stroke-dasharray:none" />
            <path d="m 15.324,67.195 c 5.719,11.302 19.428,17.174 31.761,15.703" stroke-miterlimit="79.8403193612775" id="path3191" style="fill:none;stroke:#f68634;stroke-width:1.5;stroke-miterlimit:79.84031677" />
            <path d="m 16.34,73.627 c 5.921,6.944 16.098,12.187 26.77,11.821" stroke-miterlimit="79.8403193612775" id="path3193" style="fill:none;stroke:#f68634;stroke-width:1.5;stroke-miterlimit:79.84031677" />
            <path d="m 17.746,77.918 c 3.422,4.533 11.578,8.373 18.458,9.105" stroke-miterlimit="79.8403193612775" id="path3195" style="fill:none;stroke:#f68634;stroke-width:1.5;stroke-miterlimit:79.84031677" />
            <path d="m 19.417,69.918 c 1.683,-2.1 4.002,-3.557 5.994,-5.22" stroke-miterlimit="79.8403193612775" id="path3197" style="fill:none;stroke:#f68634;stroke-width:1.5;stroke-miterlimit:79.84031677" />
            <path d="m 21.537,71.277 c 2.124,-1.817 4.165,-3.863 6.579,-5.278" stroke-miterlimit="79.8403193612775" id="path3199" style="fill:none;stroke:#f68634;stroke-width:1.5;stroke-miterlimit:79.84031677" />
            <path d="m 23.414,73.554 c 2.433,-2.146 4.774,-4.507 7.625,-6.061" stroke-miterlimit="79.8403193612775" id="path3201" style="fill:none;stroke:#f68634;stroke-width:1.5;stroke-miterlimit:79.84031677" />
            <path d="m 25.484,75.236 c 2.556,-2.537 5.565,-4.722 8.485,-6.798" stroke-miterlimit="79.8403193612775" id="path3203" style="fill:none;stroke:#f68634;stroke-width:1.5;stroke-miterlimit:79.84031677" />
            <path d="m 29.212,75.309 c 0.29,0.957 0.471,1.97 0.731,2.923" stroke-miterlimit="79.8403193612775" id="path3205" style="fill:none;stroke:#f68634;stroke-width:1.5;stroke-miterlimit:79.84031677" />
            <path d="m 31.686,73.348 c 0.441,1.783 0.871,3.599 0.974,5.42" stroke-miterlimit="79.8403193612775" id="path3207" style="fill:none;stroke:#f68634;stroke-width:1.5;stroke-miterlimit:79.84031677" />
            <path d="m 33.452,71.946 c 0.806,2.335 1.547,4.827 1.766,7.31" stroke-miterlimit="79.8403193612775" id="path3209" style="fill:none;stroke:#f68634;stroke-width:1.5;stroke-miterlimit:79.84031677" />
            <path d="m 35.644,70.119 c 1.241,3.277 2.601,6.608 2.632,10.16" stroke-miterlimit="79.8403193612775" id="path3211" style="fill:none;stroke:#f68634;stroke-width:1.5;stroke-miterlimit:79.84031677" />
            <path d="m 37.837,68.145 c 1.691,3.782 3.248,7.713 3.363,11.915" stroke-miterlimit="79.8403193612775" id="path3213" style="fill:none;stroke:#f68634;stroke-width:1.5;stroke-miterlimit:79.84031677" />
            <path d="m 40.176,66.83 c 2.241,4.615 3.996,8.79 4.605,13.961" stroke-miterlimit="79.8403193612775" id="path3215" style="fill:none;stroke:#f68634;stroke-width:1.5;stroke-miterlimit:79.84031677" />
            <path d="m 46.903,79.198 c 4.064,-5.721 6.885,-11.95 8.625,-18.712" stroke-miterlimit="79.8403193612775" id="path3217" style="fill:none;stroke:#f68634;stroke-width:1.5;stroke-miterlimit:79.84031677" />
            <path d="m 48.307,81.537 c 3.247,-3.909 6.134,-7.974 7.309,-13.011" stroke-miterlimit="79.8403193612775" id="path3219" style="fill:none;stroke:#f68634;stroke-width:1.5;stroke-miterlimit:79.84031677" />
            <path d="m 32.574,44.682 c 1.145,5.284 1.572,10.969 3.293,16.081" stroke-miterlimit="79.8403193612775" id="path3221" style="fill:none;stroke:#f68634;stroke-width:1.5;stroke-miterlimit:79.84031677" />
            <path d="m 20.368,60.251 c 0.418,1.676 0.695,3.782 1.535,5.263" stroke-miterlimit="79.8403193612775" id="path3223" style="fill:none;stroke:#f68634;stroke-width:1.5;stroke-miterlimit:79.84031677" />
            <path d="m 23.291,62.956 c 0.181,0.899 0.316,2.043 0.731,2.85" stroke-miterlimit="79.8403193612775" id="path3225" style="fill:none;stroke:#f68634;stroke-width:1.5;stroke-miterlimit:79.84031677" />
            <path d="m 39.153,64.109 c 3.735,0.92 8.054,1.042 11.768,0.061" stroke-miterlimit="79.8403193612775" id="path3227" style="fill:none;stroke:#f68634;stroke-width:1.5;stroke-miterlimit:79.84031677" />
            <path d="m 42.661,67.122 c 2.6,0.14 5.222,0.125 7.748,-0.438" stroke-miterlimit="79.8403193612775" id="path3229" style="fill:none;stroke:#f68634;stroke-width:1.5;stroke-miterlimit:79.84031677" />
            <path d="m 43.685,69.534 c 1.958,-0.011 4.057,0.392 5.993,-0.073" stroke-miterlimit="79.8403193612775" id="path3231" style="fill:none;stroke:#f68634;stroke-width:1.5;stroke-miterlimit:79.84031677" />
            <path d="m 44.562,72.034 c 1.295,0.051 2.626,-0.119 3.947,-0.067" stroke-miterlimit="79.8403193612775" id="path3233" style="fill:none;stroke:#f68634;stroke-width:1.5;stroke-miterlimit:79.84031677" />
            <path d="m 45,74.285 c 0.592,-0.104 1.294,-0.1 1.828,-0.219" stroke-miterlimit="79.8403193612775" id="path3235" style="fill:none;stroke:#f68634;stroke-width:1.5;stroke-miterlimit:79.84031677" />
            <path d="m 46.755,62.225 c 0.819,-1.947 1.074,-4.285 1.315,-6.359" stroke-miterlimit="79.8403193612775" id="path3237" style="fill:none;stroke:#f68634;stroke-width:1.5;stroke-miterlimit:79.84031677" />
            <path d="m 51.652,61.859 c 0.661,-1.618 0.952,-2.993 1.483,-4.682" stroke-miterlimit="79.8403193612775" id="path3239" style="fill:none;stroke:#f68634;stroke-width:1.5;stroke-miterlimit:79.84031677" />
            <path d="m 49.46,61.368 c 0.517,-2.17 1.141,-4.168 1.241,-6.4" stroke-miterlimit="79.8403193612775" id="path3241" style="fill:none;stroke:#f68634;stroke-width:1.5;stroke-miterlimit:79.84031677" />
            <path d="m 40.103,54.55 c -0.308,1.274 1.362,6.317 2.997,5.628 1.016,-1.84 -1.058,-5.113 -2.997,-5.628 z" stroke-miterlimit="79.8403193612775" id="path3243" style="fill:#aab7c5;stroke:none;stroke-width:0.75;marker-start:none;marker-end:none" />
            <path d="m 27.629,62.526 c -0.044,-0.064 -0.077,-0.129 -0.098,-0.191 1.703,-1.255 6.89,0.723 6.578,2.375 -1.378,0.31 -5.681,-1.012 -6.48,-2.184 z" stroke-miterlimit="79.8403193612775" id="path3245" style="fill:#aab7c5;stroke:none;stroke-width:0.75;marker-start:none;marker-end:none" />
          </g>
        </g>
        <path d="m 32.379,10.494 c -0.263,4.497 -1.374,14.008 2.142,15.744 2.221,-2.531 1.658,-12.969 2.55,-16.95 -1.529,-0.095 -3.544,0.493 -4.65,0.3 -0.008,0.272 -0.023,0.575 -0.042,0.906 z" stroke-miterlimit="79.8403193612775" id="path3247" style="fill:#4c5d6e;stroke:none;stroke-width:0.75;marker-start:none;marker-end:none" />
        <path d="m 43.085,10.037 c 0.389,1.84 -0.711,1.717 1.525,7.536 0.396,-0.871 1.73,-6.359 1.761,-7.235 -0.921,-0.44 -2.181,-0.463 -3.3,-0.45 0.005,0.05 0.009,0.101 0.014,0.149 z" stroke-miterlimit="79.8403193612775" id="path3249" style="fill:#4c5d6e;stroke:none;stroke-width:0.75;marker-start:none;marker-end:none" />
        <path d="m 41.226,19.001 c 0.01,1.505 -0.513,3.095 -0.395,4.537 0.443,-0.487 1.04,-1.688 1.49,-1.814 -0.166,-1.072 -0.793,-1.834 -1.102,-2.948 0.004,0.074 0.006,0.149 0.007,0.225 z" stroke-miterlimit="79.8403193612775" id="path3251" style="fill:#4c5d6e;stroke:none;stroke-width:0.75;marker-start:none;marker-end:none" />
        <path d="m 22.689,13.511 c -0.821,6.004 1.888,15.934 2.778,11.97 -0.357,-4.983 -0.661,-8.659 -0.768,-13.032 -1.162,-0.37 -1.783,0.101 -2.01,1.062 z" stroke-miterlimit="79.8403193612775" id="path3253" style="fill:#4c5d6e;stroke:none;stroke-width:0.75;marker-start:none;marker-end:none" />
        <path d="m 50.657,16.007 c -1.172,2.616 -2.646,11.822 -0.947,10.566 1.288,0.733 5.978,-12.376 6.3,-14.475 -0.975,-0.9 -4.258,2.786 -5.353,3.909 z" stroke-miterlimit="79.8403193612775" id="path3255" style="fill:#4c5d6e;stroke:none;stroke-width:0.75;marker-start:none;marker-end:none" />
      </g>
    </g>
  </g>
</svg>